<?xml version="1.0" encoding="UTF-8" standalone="no"?>
<!-- Created with Inkscape (http://www.inkscape.org/) -->

<svg
   xmlns:dc="http://purl.org/dc/elements/1.1/"
   xmlns:cc="http://creativecommons.org/ns#"
   xmlns:rdf="http://www.w3.org/1999/02/22-rdf-syntax-ns#"
   xmlns:svg="http://www.w3.org/2000/svg"
   xmlns="http://www.w3.org/2000/svg"
   xmlns:xlink="http://www.w3.org/1999/xlink"
   xmlns:sodipodi="http://sodipodi.sourceforge.net/DTD/sodipodi-0.dtd"
   xmlns:inkscape="http://www.inkscape.org/namespaces/inkscape"
   width="16"
   height="16"
   viewBox="0 0 4.2333333 4.2333335"
   version="1.1"
   id="svg8"
   inkscape:version="0.92.4 (33fec40, 2019-01-16)"
   sodipodi:docname="favicon-16x16.svg"
   inkscape:export-filename="/home/rick/Workplace/xpcoffee.github.io/assets/favicon-16x16.png"
   inkscape:export-xdpi="95.999992"
   inkscape:export-ydpi="95.999992">
  <defs
     id="defs2">
    <clipPath
       clipPathUnits="userSpaceOnUse"
       id="clipPath4779">
      <use
         x="0"
         y="0"
         xlink:href="#g4775"
         id="use4781"
         width="100%"
         height="100%" />
    </clipPath>
  </defs>
  <sodipodi:namedview
     id="base"
     pagecolor="#ffffff"
     bordercolor="#666666"
     borderopacity="1.0"
     inkscape:pageopacity="0.0"
     inkscape:pageshadow="2"
     inkscape:zoom="31.678384"
     inkscape:cx="12.4375"
     inkscape:cy="7.7588956"
     inkscape:document-units="mm"
     inkscape:current-layer="g845"
     showgrid="false"
     inkscape:snap-global="false"
     inkscape:window-width="1880"
     inkscape:window-height="1018"
     inkscape:window-x="40"
     inkscape:window-y="25"
     inkscape:window-maximized="1"
     units="px"
     fit-margin-top="0"
     fit-margin-left="0"
     fit-margin-right="0"
     fit-margin-bottom="0"
     showguides="true"
     inkscape:guide-bbox="true"
     inkscape:pagecheckerboard="true">
    <sodipodi:guide
       position="-16.441964,-11.622755"
       orientation="0,1"
       id="guide834"
       inkscape:locked="false" />
  </sodipodi:namedview>
  <metadata
     id="metadata5">
    <rdf:RDF>
      <cc:Work
         rdf:about="">
        <dc:format>image/svg+xml</dc:format>
        <dc:type
           rdf:resource="http://purl.org/dc/dcmitype/StillImage" />
        <dc:title></dc:title>
      </cc:Work>
    </rdf:RDF>
  </metadata>
  <g
     inkscape:label="Layer 1"
     inkscape:groupmode="layer"
     id="layer1"
     style="display:inline;opacity:1"
     transform="translate(-0.77447734,-291.7789)">
    <g
       id="g4777"
       clip-path="url(#clipPath4779)"
       transform="translate(-0.01187865,0.16570711)">
      <g
         inkscape:label="Clip"
         id="g4775" />
    </g>
    <g
       id="g983"
       transform="matrix(0.16666666,0,0,0.16666666,0.64539779,246.67686)">
      <g
         transform="matrix(1.0241731,0,0,1.0241731,-0.01872148,-7.1555192)"
         id="g845">
        <path
           style="opacity:1;fill:#000000;fill-opacity:1;stroke:#000000;stroke-width:0.20871517;stroke-miterlimit:4;stroke-dasharray:none;stroke-opacity:1"
           d="M 13.170592,271.31608 A 12.29596,12.29596 0 0 0 0.87883516,283.61456 12.29596,12.29596 0 0 0 13.175759,295.90786 12.29596,12.29596 0 0 0 25.470616,283.61197 v -0.005 A 12.29596,12.29596 0 0 0 13.170592,271.31608 Z m -0.05736,1.06506 0.265615,0.017 0.259932,0.0165 0.192238,0.45217 c 0.113054,0.28262 0.203256,0.62157 0.231511,0.87592 l 0.04547,0.42426 0.452167,0.0677 c 0.248703,0.034 0.485976,0.0677 0.519867,0.0677 0.03952,0.006 0.09053,-0.062 0.107487,-0.15245 0.07917,-0.31087 0.299685,-0.73521 0.559654,-1.07435 0.152628,-0.19219 0.299374,-0.35037 0.327629,-0.35037 0.02826,0 0.152556,0.0284 0.265617,0.0625 l 0.209291,0.062 0.0677,0.49196 c 0.05653,0.42958 0.0341,0.85896 -0.06201,1.24334 -0.01135,0.0509 0.147056,0.15273 0.463537,0.29403 0.423992,0.18653 0.486087,0.19752 0.536919,0.12403 0.18656,-0.29392 0.553707,-0.69491 0.870231,-0.94361 l 0.356052,-0.28267 0.209288,0.11317 0.203605,0.11265 -0.01705,0.447 c -0.01135,0.44653 -0.135477,0.89827 -0.327628,1.19218 -0.05654,0.0791 -0.07373,0.15829 -0.04548,0.18655 0.02831,0.0226 0.225988,0.18128 0.440801,0.3452 0.378716,0.29959 0.390146,0.29964 0.480592,0.19223 0.175201,-0.22043 0.565075,-0.48048 0.972031,-0.6444 0.220451,-0.096 0.435348,-0.17002 0.474909,-0.17002 0.0338,0 0.1359,0.074 0.22634,0.17002 l 0.158131,0.1695 -0.158131,0.40669 c -0.163878,0.42393 -0.316923,0.67257 -0.610814,0.98909 l -0.169498,0.18087 0.322461,0.41289 c 0.18084,0.2261 0.339125,0.41234 0.361733,0.40669 0.0226,0 0.191744,-0.0734 0.378272,-0.15813 0.406911,-0.19219 1.328452,-0.35027 1.401982,-0.24287 0.220451,0.32781 0.225907,0.37861 0.05633,0.62166 -0.203499,0.30523 -0.757166,0.85376 -0.960665,0.9555 -0.18084,0.0903 -0.180997,0.0898 0.05064,0.64389 l 0.175184,0.42426 0.259932,-0.0455 c 0.3278,-0.0565 0.972367,-0.0565 1.311547,0 0.254349,0.0453 0.265462,0.0567 0.333312,0.29972 0.0453,0.14698 0.05094,0.27147 0.02274,0.29972 -0.542589,0.44654 -1.141844,0.79685 -1.379244,0.79685 -0.0565,0 -0.118422,0.0223 -0.135392,0.045 -0.0169,0.0282 1.05e-4,0.2827 0.03411,0.55966 l 0.06201,0.50901 0.429432,0.0336 c 0.31091,0.0226 0.559957,0.0905 0.882119,0.22634 l 0.452167,0.19224 v 0.2713 0.2713 l -0.441317,0.18655 c -0.31084,0.13567 -0.570658,0.20322 -0.881599,0.22583 l -0.440802,0.0398 -0.06201,0.5085 c -0.034,0.27696 -0.05101,0.53138 -0.03411,0.55965 0.017,0.0226 0.07888,0.0455 0.141078,0.0455 0.220469,0 0.859229,0.36728 1.373558,0.79685 0.0281,0.0281 0.02246,0.15272 -0.02274,0.29404 -0.0565,0.20913 -0.09575,0.2601 -0.231511,0.28835 -0.42391,0.0848 -0.915622,0.10152 -1.266071,0.0393 -0.209129,-0.0395 -0.390265,-0.062 -0.401526,-0.0507 -0.006,0.0116 -0.107066,0.22577 -0.214458,0.48576 l -0.197919,0.46354 0.310573,0.2036 c 0.305171,0.20349 0.565298,0.46945 0.842328,0.87075 0.158199,0.22611 0.146994,0.28245 -0.0677,0.60462 -0.0736,0.10741 -0.995052,-0.0507 -1.401982,-0.24288 -0.18652,-0.0848 -0.355692,-0.15865 -0.378272,-0.15865 -0.0226,-0.006 -0.180885,0.1811 -0.361733,0.40721 l -0.322461,0.41238 0.169498,0.18087 c 0.293891,0.31655 0.446439,0.56516 0.610298,0.98908 l 0.158647,0.40721 -0.158647,0.1695 c -0.0903,0.096 -0.191937,0.1695 -0.225824,0.1695 -0.0396,0 -0.254458,-0.0734 -0.474909,-0.1695 -0.406966,-0.16393 -0.796827,-0.42396 -0.972031,-0.6444 -0.09045,-0.10741 -0.101889,-0.10735 -0.480592,0.19223 -0.214813,0.16394 -0.412504,0.32208 -0.440801,0.34469 -0.02826,0.0281 -0.01111,0.10743 0.04548,0.18655 0.192151,0.29393 0.316317,0.74615 0.327628,1.19269 l 0.01705,0.44648 -0.203605,0.11317 -0.203605,0.11318 -0.338997,-0.26562 c -0.36744,-0.2826 -0.655611,-0.58243 -0.819589,-0.86506 l -0.107487,-0.18087 -0.491959,0.21497 c -0.327795,0.13565 -0.485701,0.23748 -0.47439,0.28836 0.09611,0.38434 0.118528,0.81379 0.06201,1.24901 l -0.0677,0.49765 -0.203607,0.0563 c -0.305171,0.0848 -0.304946,0.0847 -0.59893,-0.29404 -0.259971,-0.33913 -0.480486,-0.76297 -0.559654,-1.07384 -0.03961,-0.16957 0.02263,-0.16931 -0.825273,-0.0506 l -0.254248,0.0336 -0.04547,0.42426 c -0.02826,0.25434 -0.118452,0.59331 -0.231511,0.87592 l -0.192238,0.45217 -0.259932,0.017 -0.265615,0.0171 -0.164333,-0.36742 c -0.186515,-0.40697 -0.28222,-0.7861 -0.299207,-1.17047 l -0.01137,-0.24288 -0.509013,-0.0677 c -0.531294,-0.0735 -0.593244,-0.068 -0.593244,0.062 0,0.25999 -0.718171,1.43042 -0.876432,1.43609 -0.02826,0.006 -0.152556,-0.023 -0.265618,-0.0512 -0.180841,-0.0508 -0.214723,-0.0903 -0.254249,-0.2713 -0.05659,-0.28259 -0.05659,-1.11318 0,-1.39579 l 0.04548,-0.23202 -0.4976439,-0.20361 -0.497128,-0.20309 -0.101801,0.19172 c -0.118616,0.23175 -0.610561,0.72938 -0.93276,0.94982 l -0.237196,0.16381 -0.203605,-0.10749 c -0.113056,-0.0566 -0.215032,-0.12415 -0.226343,-0.14676 -0.09043,-0.14131 0.237474,-1.51464 0.378788,-1.60507 0.118697,-0.0735 0.02262,-0.20372 -0.35605,-0.49764 l -0.406693,-0.31626 -0.170016,0.15813 c -0.310888,0.28828 -0.559494,0.44634 -0.983401,0.60461 l -0.41238,0.15813 -0.186552,-0.18086 -0.192236,-0.18655 0.186553,-0.44649 c 0.197868,-0.46914 0.531092,-0.97754 0.683678,-1.03405 0.09611,-0.0396 0.05112,-0.11856 -0.418061,-0.70073 -0.186478,-0.23177 -0.197582,-0.23773 -0.32763,-0.15296 -0.226042,0.14696 -0.70689,0.29956 -1.153417,0.36174 -0.407006,0.0566 -0.429435,0.0509 -0.52555,-0.0677 -0.192151,-0.2487 -0.180893,-0.35601 0.08475,-0.7121 0.254336,-0.33916 0.649843,-0.71218 0.881599,-0.81391 0.158261,-0.0735 0.15829,-0.0903 -0.07338,-0.63303 -0.118777,-0.27697 -0.220417,-0.44692 -0.265615,-0.43563 -0.401291,0.10741 -0.825061,0.13606 -1.243336,0.0739 -0.25442,-0.0338 -0.480718,-0.0792 -0.509013,-0.10749 -0.02258,-0.0226 -0.05644,-0.14127 -0.07338,-0.26561 -0.03952,-0.22611 -0.03375,-0.232 0.305408,-0.49765 0.361765,-0.28263 0.898705,-0.54828 1.096574,-0.54828 0.107431,0 0.107363,-0.0225 0.07338,-0.4408 -0.06214,-0.70655 -0.0394,-0.66689 -0.519866,-0.7121 -0.293902,-0.0226 -0.55984,-0.0905 -0.859378,-0.22066 l -0.435117,-0.18655 v -0.27699 -0.27698 l 0.435117,-0.18604 c 0.299538,-0.13 0.565476,-0.19805 0.859378,-0.22066 0.480459,-0.0453 0.457721,-0.006 0.519866,-0.71778 0.03397,-0.41262 0.03404,-0.43512 -0.07338,-0.43512 -0.197869,0 -0.734809,-0.26566 -1.096574,-0.54829 -0.339142,-0.26565 -0.344932,-0.27153 -0.305408,-0.49764 0.01694,-0.12435 0.05081,-0.24301 0.07338,-0.26562 0.02831,-0.0282 0.254593,-0.0736 0.509013,-0.10748 0.418275,-0.0622 0.842045,-0.034 1.243336,0.0734 0.0452,0.0116 0.146838,-0.15815 0.265615,-0.43512 0.231677,-0.54261 0.231648,-0.55955 0.07338,-0.63304 -0.231756,-0.10175 -0.627263,-0.47474 -0.881599,-0.8139 -0.265647,-0.35609 -0.276908,-0.46905 -0.08475,-0.7121 0.09611,-0.11307 0.113239,-0.11887 0.582393,-0.0455 0.503081,0.0735 0.853498,0.18073 1.09089,0.339 0.135642,0.0903 0.146836,0.085 0.333314,-0.15245 0.469191,-0.58218 0.514179,-0.66117 0.418061,-0.70073 -0.152586,-0.0565 -0.48581,-0.56542 -0.683678,-1.03456 l -0.186553,-0.44648 0.192236,-0.18656 0.186552,-0.18086 0.41238,0.15813 c 0.423907,0.15827 0.672513,0.31684 0.983401,0.60513 l 0.170016,0.15813 0.406693,-0.31626 c 0.378669,-0.29393 0.474747,-0.42416 0.35605,-0.49765 -0.141314,-0.0903 -0.469228,-1.46376 -0.378788,-1.60507 0.01135,-0.0226 0.113276,-0.0906 0.226343,-0.14727 l 0.203605,-0.10749 0.237196,0.16433 c 0.327832,0.22045 0.814144,0.71757 0.93276,0.95498 l 0.101801,0.18655 0.497128,-0.2036 0.4976439,-0.20361 -0.04548,-0.22582 c -0.05659,-0.28826 -0.05659,-1.11937 0,-1.40199 0.03952,-0.18088 0.0734,-0.22043 0.254249,-0.2713 0.113057,-0.0281 0.237363,-0.0562 0.265618,-0.0506 0.158261,0.006 0.876432,1.17555 0.876432,1.43557 0,0.13 0.0675,0.13556 0.593244,0.0677 l 0.509013,-0.0677 0.01137,-0.24856 c 0.01697,-0.38434 0.112686,-0.76299 0.299207,-1.16996 z"
           id="path882"
           inkscape:connector-curvature="0" />
        <g
           id="g4793"
           transform="matrix(1.2656047,0,0,1.2656047,-65.546919,125.21502)">
          <path
             inkscape:connector-curvature="0"
             id="path921"
             d="m 66.894071,122.57517 -8.493705,0.004 -0.01368,0.43257 c 0,0 -1.190983,-0.0467 -1.563853,0.81392 -0.899196,2.11394 0.644038,3.05221 1.385972,3.39122 0.741934,0.339 1.669044,0.0727 1.740408,0.12756 0.298215,0.22911 1.166293,0.93938 0.527979,0.90404 -1.192168,0.10382 -1.816583,0.0533 -3.261078,-0.0773 -0.920771,0.2065 1.850329,0.87586 2.84923,0.97478 1.662484,0.16464 3.868338,0.0523 4.824607,-0.0173 0.956268,-0.0696 3.866137,-0.80829 3.061698,-1.00912 -1.423517,0.13688 -4.358698,0.43642 -3.326332,-0.20392 2.26764,-1.38114 2.268756,-5.34084 2.268756,-5.34084 z m -8.679973,1.00461 c 0.135234,0.0126 0.225552,0.0614 0.225552,0.0614 0,0 0.03438,2.28287 0.994456,3.08754 0.514915,0.61632 -3.172553,-0.1037 -2.05821,-2.52035 0.263164,-0.57072 0.612815,-0.64961 0.838202,-0.62854 z"
             style="fill:#000000;stroke:none;stroke-width:0.22599263px;stroke-linecap:butt;stroke-linejoin:miter;stroke-opacity:1"
             sodipodi:nodetypes="cccccsccsscccccccccc" />
          <a
             transform="matrix(0.85414545,0,0,0.85414545,-16.905063,17.869952)"
             style="fill:#ff8c00;fill-opacity:1;stroke:#ff8c00;stroke-opacity:1"
             id="a927" />
          <text
             xml:space="preserve"
             style="font-style:normal;font-variant:normal;font-weight:normal;font-stretch:normal;font-size:0.04423118px;line-height:1.25;font-family:ember;-inkscape-font-specification:ember;letter-spacing:0px;word-spacing:0px;fill:#ffffff;fill-opacity:1;stroke:none;stroke-width:0.00110578"
             x="66.565498"
             y="122.60653"
             id="text4828"><tspan
               sodipodi:role="line"
               id="tspan4826"
               x="66.565498"
               y="122.60653"
               style="fill:#ffffff;stroke-width:0.00110578">emerick bosch</tspan></text>
        </g>
      </g>
    </g>
  </g>
</svg>
