<?xml version="1.0" encoding="UTF-8" standalone="no"?>
<svg
   xmlns:dc="http://purl.org/dc/elements/1.1/"
   xmlns:cc="http://creativecommons.org/ns#"
   xmlns:rdf="http://www.w3.org/1999/02/22-rdf-syntax-ns#"
   xmlns:svg="http://www.w3.org/2000/svg"
   xmlns="http://www.w3.org/2000/svg"
   xmlns:xlink="http://www.w3.org/1999/xlink"
   id="svg8"
   version="1.1"
   viewBox="0 0 25.4 25.400001"
   height="96"
   width="96">
  <defs
     id="defs2">
    <clipPath
       id="clipPath4779"
       clipPathUnits="userSpaceOnUse">
      <use
         height="100%"
         width="100%"
         id="use4781"
         xlink:href="#g4775"
         y="0"
         x="0" />
    </clipPath>
  </defs>
  <metadata
     id="metadata5">
    <rdf:RDF>
      <cc:Work
         rdf:about="">
        <dc:format>image/svg+xml</dc:format>
        <dc:type
           rdf:resource="http://purl.org/dc/dcmitype/StillImage" />
        <dc:title></dc:title>
      </cc:Work>
    </rdf:RDF>
  </metadata>
  <g
     transform="translate(-0.77447731,-270.61222)"
     style="display:inline;opacity:1"
     id="layer1">
    <g
       transform="matrix(1.0241731,0,0,1.0241731,-0.01872148,-7.1555192)"
       id="g845">
      <path
         style="opacity:1;fill:#000000;fill-opacity:1;stroke:#000000;stroke-width:0.20871517;stroke-miterlimit:4;stroke-dasharray:none;stroke-opacity:1"
         d="M 13.170592,271.31608 A 12.29596,12.29596 0 0 0 0.87883516,283.61456 12.29596,12.29596 0 0 0 13.175759,295.90786 12.29596,12.29596 0 0 0 25.470616,283.61197 v -0.005 A 12.29596,12.29596 0 0 0 13.170592,271.31608 Z m -0.05736,1.06506 0.265615,0.017 0.259932,0.0165 0.192238,0.45217 c 0.113054,0.28262 0.203256,0.62157 0.231511,0.87592 l 0.04547,0.42426 0.452167,0.0677 c 0.248703,0.034 0.485976,0.0677 0.519867,0.0677 0.03952,0.006 0.09053,-0.062 0.107487,-0.15245 0.07917,-0.31087 0.299685,-0.73521 0.559654,-1.07435 0.152628,-0.19219 0.299374,-0.35037 0.327629,-0.35037 0.02826,0 0.152556,0.0284 0.265617,0.0625 l 0.209291,0.062 0.0677,0.49196 c 0.05653,0.42958 0.0341,0.85896 -0.06201,1.24334 -0.01135,0.0509 0.147056,0.15273 0.463537,0.29403 0.423992,0.18653 0.486087,0.19752 0.536919,0.12403 0.18656,-0.29392 0.553707,-0.69491 0.870231,-0.94361 l 0.356052,-0.28267 0.209288,0.11317 0.203605,0.11265 -0.01705,0.447 c -0.01135,0.44653 -0.135477,0.89827 -0.327628,1.19218 -0.05654,0.0791 -0.07373,0.15829 -0.04548,0.18655 0.02831,0.0226 0.225988,0.18128 0.440801,0.3452 0.378716,0.29959 0.390146,0.29964 0.480592,0.19223 0.175201,-0.22043 0.565075,-0.48048 0.972031,-0.6444 0.220451,-0.096 0.435348,-0.17002 0.474909,-0.17002 0.0338,0 0.1359,0.074 0.22634,0.17002 l 0.158131,0.1695 -0.158131,0.40669 c -0.163878,0.42393 -0.316923,0.67257 -0.610814,0.98909 l -0.169498,0.18087 0.322461,0.41289 c 0.18084,0.2261 0.339125,0.41234 0.361733,0.40669 0.0226,0 0.191744,-0.0734 0.378272,-0.15813 0.406911,-0.19219 1.328452,-0.35027 1.401982,-0.24287 0.220451,0.32781 0.225907,0.37861 0.05633,0.62166 -0.203499,0.30523 -0.757166,0.85376 -0.960665,0.9555 -0.18084,0.0903 -0.180997,0.0898 0.05064,0.64389 l 0.175184,0.42426 0.259932,-0.0455 c 0.3278,-0.0565 0.972367,-0.0565 1.311547,0 0.254349,0.0453 0.265462,0.0567 0.333312,0.29972 0.0453,0.14698 0.05094,0.27147 0.02274,0.29972 -0.542589,0.44654 -1.141844,0.79685 -1.379244,0.79685 -0.0565,0 -0.118422,0.0223 -0.135392,0.045 -0.0169,0.0282 1.05e-4,0.2827 0.03411,0.55966 l 0.06201,0.50901 0.429432,0.0336 c 0.31091,0.0226 0.559957,0.0905 0.882119,0.22634 l 0.452167,0.19224 v 0.2713 0.2713 l -0.441317,0.18655 c -0.31084,0.13567 -0.570658,0.20322 -0.881599,0.22583 l -0.440802,0.0398 -0.06201,0.5085 c -0.034,0.27696 -0.05101,0.53138 -0.03411,0.55965 0.017,0.0226 0.07888,0.0455 0.141078,0.0455 0.220469,0 0.859229,0.36728 1.373558,0.79685 0.0281,0.0281 0.02246,0.15272 -0.02274,0.29404 -0.0565,0.20913 -0.09575,0.2601 -0.231511,0.28835 -0.42391,0.0848 -0.915622,0.10152 -1.266071,0.0393 -0.209129,-0.0395 -0.390265,-0.062 -0.401526,-0.0507 -0.006,0.0116 -0.107066,0.22577 -0.214458,0.48576 l -0.197919,0.46354 0.310573,0.2036 c 0.305171,0.20349 0.565298,0.46945 0.842328,0.87075 0.158199,0.22611 0.146994,0.28245 -0.0677,0.60462 -0.0736,0.10741 -0.995052,-0.0507 -1.401982,-0.24288 -0.18652,-0.0848 -0.355692,-0.15865 -0.378272,-0.15865 -0.0226,-0.006 -0.180885,0.1811 -0.361733,0.40721 l -0.322461,0.41238 0.169498,0.18087 c 0.293891,0.31655 0.446439,0.56516 0.610298,0.98908 l 0.158647,0.40721 -0.158647,0.1695 c -0.0903,0.096 -0.191937,0.1695 -0.225824,0.1695 -0.0396,0 -0.254458,-0.0734 -0.474909,-0.1695 -0.406966,-0.16393 -0.796827,-0.42396 -0.972031,-0.6444 -0.09045,-0.10741 -0.101889,-0.10735 -0.480592,0.19223 -0.214813,0.16394 -0.412504,0.32208 -0.440801,0.34469 -0.02826,0.0281 -0.01111,0.10743 0.04548,0.18655 0.192151,0.29393 0.316317,0.74615 0.327628,1.19269 l 0.01705,0.44648 -0.203605,0.11317 -0.203605,0.11318 -0.338997,-0.26562 c -0.36744,-0.2826 -0.655611,-0.58243 -0.819589,-0.86506 l -0.107487,-0.18087 -0.491959,0.21497 c -0.327795,0.13565 -0.485701,0.23748 -0.47439,0.28836 0.09611,0.38434 0.118528,0.81379 0.06201,1.24901 l -0.0677,0.49765 -0.203607,0.0563 c -0.305171,0.0848 -0.304946,0.0847 -0.59893,-0.29404 -0.259971,-0.33913 -0.480486,-0.76297 -0.559654,-1.07384 -0.03961,-0.16957 0.02263,-0.16931 -0.825273,-0.0506 l -0.254248,0.0336 -0.04547,0.42426 c -0.02826,0.25434 -0.118452,0.59331 -0.231511,0.87592 l -0.192238,0.45217 -0.259932,0.017 -0.265615,0.0171 -0.164333,-0.36742 c -0.186515,-0.40697 -0.28222,-0.7861 -0.299207,-1.17047 l -0.01137,-0.24288 -0.509013,-0.0677 c -0.531294,-0.0735 -0.593244,-0.068 -0.593244,0.062 0,0.25999 -0.718171,1.43042 -0.876432,1.43609 -0.02826,0.006 -0.152556,-0.023 -0.265618,-0.0512 -0.180841,-0.0508 -0.214723,-0.0903 -0.254249,-0.2713 -0.05659,-0.28259 -0.05659,-1.11318 0,-1.39579 l 0.04548,-0.23202 -0.4976439,-0.20361 -0.497128,-0.20309 -0.101801,0.19172 c -0.118616,0.23175 -0.610561,0.72938 -0.93276,0.94982 l -0.237196,0.16381 -0.203605,-0.10749 c -0.113056,-0.0566 -0.215032,-0.12415 -0.226343,-0.14676 -0.09043,-0.14131 0.237474,-1.51464 0.378788,-1.60507 0.118697,-0.0735 0.02262,-0.20372 -0.35605,-0.49764 l -0.406693,-0.31626 -0.170016,0.15813 c -0.310888,0.28828 -0.559494,0.44634 -0.983401,0.60461 l -0.41238,0.15813 -0.186552,-0.18086 -0.192236,-0.18655 0.186553,-0.44649 c 0.197868,-0.46914 0.531092,-0.97754 0.683678,-1.03405 0.09611,-0.0396 0.05112,-0.11856 -0.418061,-0.70073 -0.186478,-0.23177 -0.197582,-0.23773 -0.32763,-0.15296 -0.226042,0.14696 -0.70689,0.29956 -1.153417,0.36174 -0.407006,0.0566 -0.429435,0.0509 -0.52555,-0.0677 -0.192151,-0.2487 -0.180893,-0.35601 0.08475,-0.7121 0.254336,-0.33916 0.649843,-0.71218 0.881599,-0.81391 0.158261,-0.0735 0.15829,-0.0903 -0.07338,-0.63303 -0.118777,-0.27697 -0.220417,-0.44692 -0.265615,-0.43563 -0.401291,0.10741 -0.825061,0.13606 -1.243336,0.0739 -0.25442,-0.0338 -0.480718,-0.0792 -0.509013,-0.10749 -0.02258,-0.0226 -0.05644,-0.14127 -0.07338,-0.26561 -0.03952,-0.22611 -0.03375,-0.232 0.305408,-0.49765 0.361765,-0.28263 0.898705,-0.54828 1.096574,-0.54828 0.107431,0 0.107363,-0.0225 0.07338,-0.4408 -0.06214,-0.70655 -0.0394,-0.66689 -0.519866,-0.7121 -0.293902,-0.0226 -0.55984,-0.0905 -0.859378,-0.22066 l -0.435117,-0.18655 v -0.27699 -0.27698 l 0.435117,-0.18604 c 0.299538,-0.13 0.565476,-0.19805 0.859378,-0.22066 0.480459,-0.0453 0.457721,-0.006 0.519866,-0.71778 0.03397,-0.41262 0.03404,-0.43512 -0.07338,-0.43512 -0.197869,0 -0.734809,-0.26566 -1.096574,-0.54829 -0.339142,-0.26565 -0.344932,-0.27153 -0.305408,-0.49764 0.01694,-0.12435 0.05081,-0.24301 0.07338,-0.26562 0.02831,-0.0282 0.254593,-0.0736 0.509013,-0.10748 0.418275,-0.0622 0.842045,-0.034 1.243336,0.0734 0.0452,0.0116 0.146838,-0.15815 0.265615,-0.43512 0.231677,-0.54261 0.231648,-0.55955 0.07338,-0.63304 -0.231756,-0.10175 -0.627263,-0.47474 -0.881599,-0.8139 -0.265647,-0.35609 -0.276908,-0.46905 -0.08475,-0.7121 0.09611,-0.11307 0.113239,-0.11887 0.582393,-0.0455 0.503081,0.0735 0.853498,0.18073 1.09089,0.339 0.135642,0.0903 0.146836,0.085 0.333314,-0.15245 0.469191,-0.58218 0.514179,-0.66117 0.418061,-0.70073 -0.152586,-0.0565 -0.48581,-0.56542 -0.683678,-1.03456 l -0.186553,-0.44648 0.192236,-0.18656 0.186552,-0.18086 0.41238,0.15813 c 0.423907,0.15827 0.672513,0.31684 0.983401,0.60513 l 0.170016,0.15813 0.406693,-0.31626 c 0.378669,-0.29393 0.474747,-0.42416 0.35605,-0.49765 -0.141314,-0.0903 -0.469228,-1.46376 -0.378788,-1.60507 0.01135,-0.0226 0.113276,-0.0906 0.226343,-0.14727 l 0.203605,-0.10749 0.237196,0.16433 c 0.327832,0.22045 0.814144,0.71757 0.93276,0.95498 l 0.101801,0.18655 0.497128,-0.2036 0.4976439,-0.20361 -0.04548,-0.22582 c -0.05659,-0.28826 -0.05659,-1.11937 0,-1.40199 0.03952,-0.18088 0.0734,-0.22043 0.254249,-0.2713 0.113057,-0.0281 0.237363,-0.0562 0.265618,-0.0506 0.158261,0.006 0.876432,1.17555 0.876432,1.43557 0,0.13 0.0675,0.13556 0.593244,0.0677 l 0.509013,-0.0677 0.01137,-0.24856 c 0.01697,-0.38434 0.112686,-0.76299 0.299207,-1.16996 z"
         id="path882" />
      <g
         id="g4793"
         transform="translate(-49.115543,162.20355)">
        <path
           id="path889"
           d="m 60.766088,113.73801 c 0,0 0.516978,1.3727 -0.0025,2.06458 -0.532967,0.70984 -0.710476,1.05385 -1.08079,1.7434 -0.442955,0.82482 0.626107,2.74746 0.626107,2.74746 0,0 -0.527924,-1.64415 0.01395,-2.38465 0.594194,-0.81202 0.370528,-0.56205 0.910613,-1.31358 0.734131,-1.02154 -0.467384,-2.85721 -0.467384,-2.85721 z"
           style="fill:#ff8c00;stroke:#ff8c00;stroke-width:0.22599263px;stroke-linecap:butt;stroke-linejoin:miter;stroke-opacity:1;fill-opacity:1" />
        <path
           id="path889-6"
           d="m 65.493439,114.436 c 0,0 0.438772,1.39966 -0.118861,2.06116 -0.572135,0.67866 -0.768755,1.01211 -1.177352,1.67969 -0.48875,0.79855 0.470226,2.77839 0.470226,2.77839 0,0 -0.434397,-1.6713 0.148358,-2.38007 0.639025,-0.77724 0.401623,-0.54027 0.983215,-1.26016 0.790552,-0.97852 -0.305569,-2.87901 -0.305569,-2.87901 z"
           style="fill:#ff8c00;stroke:#ff8c00;stroke-width:0.22599263px;stroke-linecap:butt;stroke-linejoin:miter;stroke-opacity:1;fill-opacity:1" />
        <path
           id="path921"
           d="m 66.894071,122.57517 -8.493705,0.004 -0.01368,0.43257 c 0,0 -1.190983,-0.0467 -1.563853,0.81392 -0.899196,2.11394 0.644038,3.05221 1.385972,3.39122 0.741934,0.339 1.669044,0.0727 1.740408,0.12756 0.298215,0.22911 1.166293,0.93938 0.527979,0.90404 -1.192168,0.10382 -1.816583,0.0533 -3.261078,-0.0773 -0.920771,0.2065 1.850329,0.87586 2.84923,0.97478 1.662484,0.16464 3.868338,0.0523 4.824607,-0.0173 0.956268,-0.0696 3.866137,-0.80829 3.061698,-1.00912 -1.423517,0.13688 -4.358698,0.43642 -3.326332,-0.20392 2.26764,-1.38114 2.268756,-5.34084 2.268756,-5.34084 z m -8.679973,1.00461 c 0.135234,0.0126 0.225552,0.0614 0.225552,0.0614 0,0 0.03438,2.28287 0.994456,3.08754 0.514915,0.61632 -3.172553,-0.1037 -2.05821,-2.52035 0.263164,-0.57072 0.612815,-0.64961 0.838202,-0.62854 z"
           style="fill:#000000;stroke:none;stroke-width:0.22599263px;stroke-linecap:butt;stroke-linejoin:miter;stroke-opacity:1" />
        <a
           transform="matrix(0.85414545,0,0,0.85414545,-16.905063,17.869952)"
           style="fill:#ff8c00;fill-opacity:1;stroke:#ff8c00;stroke-opacity:1"
           id="a927">
          <path
             style="fill:#ff8c00;stroke:#ff8c00;stroke-width:0.38569963px;stroke-linecap:butt;stroke-linejoin:miter;stroke-opacity:1;fill-opacity:1"
             d="m 94.115077,110.60814 c 0,0 0.765161,2.38361 -0.17878,3.51906 -0.968517,1.16493 -1.300188,1.7363 -1.989733,2.88039 -0.824808,1.36854 0.834927,4.73626 0.834927,4.73626 0,0 -0.760863,-2.84726 0.225432,-4.06369 1.081525,-1.33391 0.679128,-0.92673 1.663304,-2.1621 1.337779,-1.67924 -0.555089,-4.90992 -0.555089,-4.90992 z"
             id="path889-3" />
        </a>
        <text
           xml:space="preserve"
           style="font-style:normal;font-variant:normal;font-weight:normal;font-stretch:normal;font-size:0.04423118px;line-height:1.25;font-family:ember;-inkscape-font-specification:ember;letter-spacing:0px;word-spacing:0px;fill:#ffffff;fill-opacity:1;stroke:none;stroke-width:0.00110578"
           x="66.565498"
           y="122.60653"
           id="text4828"><tspan
             id="tspan4826"
             x="66.565498"
             y="122.60653"
             style="fill:#ffffff;stroke-width:0.00110578">emerick bosch</tspan></text>
      </g>
    </g>
    <g
       transform="translate(-0.01187865,0.16570711)"
       clip-path="url(#clipPath4779)"
       id="g4777">
      <g
         id="g4775" />
    </g>
    <path
       transform="matrix(0.26458333,0,0,0.26458333,0.77447731,270.61222)"
       id="path853"
       d="m 34.765633,69.127993 c -1.874991,-0.504282 -3.267234,-1.289351 -4.572876,-2.57859 -2.182208,-2.154789 -2.562668,-4.845009 -1.097298,-7.758946 0.567975,-1.129437 1.038557,-1.658025 1.8137,-2.037267 0.580593,-0.284058 0.798734,-0.326972 1.337635,-0.263147 0.354151,0.04194 0.673529,0.10588 0.70973,0.142081 0.0362,0.0362 0.112644,0.665799 0.169876,1.399109 0.354461,4.541712 1.532932,8.208226 3.226029,10.036973 0.694228,0.749849 0.814169,1.050855 0.471176,1.182473 -0.337401,0.129474 -1.343396,0.0695 -2.057972,-0.122686 z"
       style="opacity:1;fill:#ffffff;fill-opacity:1;stroke:none;stroke-width:0.10960155;stroke-miterlimit:4;stroke-dasharray:none;stroke-opacity:1" />
    <path
       transform="matrix(0.26458333,0,0,0.26458333,0.77447731,270.61222)"
       id="path855"
       d="m 47.416845,90.272476 c -0.567698,-1.472091 -0.801515,-2.484947 -0.98942,-4.286 l -0.10462,-1.002772 -1.55265,-0.211216 c -2.889796,-0.393112 -3.606223,-0.284219 -3.606223,0.548132 0,0.477982 -0.760359,1.943759 -1.912991,3.687763 -0.948934,1.435793 -0.998462,1.479689 -1.542639,1.367228 -0.309225,-0.0639 -0.655977,-0.23541 -0.770559,-0.381125 -0.345245,-0.43905 -0.474504,-3.099855 -0.246048,-5.06496 0.11603,-0.998056 0.185375,-1.837357 0.1541,-1.865116 -0.114484,-0.101609 -4.496393,-1.873508 -4.530906,-1.832147 -0.01959,0.02348 -0.215946,0.404306 -0.436335,0.84627 -0.423211,0.848698 -2.984897,3.483628 -3.80679,3.915636 -0.426641,0.224253 -0.558635,0.219803 -1.097139,-0.03699 -0.571895,-0.272717 -0.605787,-0.336455 -0.5154,-0.969208 0.222755,-1.55937 0.815743,-3.776754 1.248063,-4.666943 0.591505,-1.217963 0.491675,-1.452232 -1.22165,-2.866852 -2.026231,-1.67297 -1.91072,-1.652132 -3.123065,-0.563377 -1.029438,0.924497 -2.287675,1.661823 -3.962234,2.321873 l -0.8701,0.342963 -0.480639,-0.501679 -0.480638,-0.501678 0.47388,-1.138657 c 0.594639,-1.428822 1.874459,-3.512249 2.481262,-4.039263 0.253691,-0.220332 0.460845,-0.501582 0.460342,-0.625 -0.0025,-0.615061 -2.213801,-3.466727 -2.81877,-3.635062 -0.261112,-0.07266 -0.781144,0.05322 -1.438385,0.348175 -1.174319,0.527001 -3.751665,1.184383 -4.650815,1.186241 -0.663077,0.0014 -1.076177,-0.381984 -1.085436,-1.007277 -0.0087,-0.584484 1.812253,-2.782182 3.070686,-3.706086 0.616035,-0.452275 1.229193,-0.91368 1.362575,-1.025346 0.366123,-0.306516 0.150471,-1.191597 -0.722016,-2.9633 -0.877128,-1.781127 -0.572705,-1.659782 -3.47378,-1.384686 -1.8687096,0.1772 -4.3490612,-0.166713 -4.3527254,-0.603527 -0.00134,-0.159868 -0.047864,-0.459893 -0.1033832,-0.666721 -0.081482,-0.303547 0.1169608,-0.540731 1.029224,-1.230157 1.2553617,-0.948716 3.4109856,-2.054506 4.0050516,-2.054506 0.768824,0 0.870507,-0.39163 0.658591,-2.53653 -0.247395,-2.504 -0.328733,-2.59817 -2.5262386,-2.924818 C 9.0483826,50.41337 7.6739192,50.049872 6.8846612,49.737986 L 5.4496465,49.17092 v -0.765357 -0.765357 l 1.4409654,-0.555695 c 0.792531,-0.305632 2.1669944,-0.663616 3.0543632,-0.795517 2.1907869,-0.325649 2.2730009,-0.421031 2.5202879,-2.923931 0.211916,-2.1449 0.110233,-2.53653 -0.658591,-2.53653 -0.592343,0 -2.7483105,-1.104741 -3.9955569,-2.047368 -1.0918158,-0.825157 -1.1176466,-0.863734 -1.0030965,-1.498014 0.064668,-0.358075 0.1303813,-0.667815 0.1460299,-0.688307 0.015648,-0.02049 0.6277562,-0.130858 1.3602393,-0.245254 0.835446,-0.130477 1.8974742,-0.158346 2.8496442,-0.07478 2.996261,0.262955 2.664452,0.38945 3.512694,-1.33913 0.863037,-1.758729 1.099522,-2.716322 0.744164,-3.013318 -0.13145,-0.109863 -0.743029,-0.569793 -1.359064,-1.022068 -1.258433,-0.923904 -3.079341,-3.121602 -3.070686,-3.706086 0.0082,-0.556653 0.415832,-1.008882 0.906864,-1.006182 0.894714,0.0049 3.743581,0.697866 4.778472,1.162298 0.66622,0.298981 1.237095,0.444949 1.4893,0.380802 0.550744,-0.14008 2.819685,-3.057136 2.819685,-3.625118 0,-0.134266 -0.207566,-0.424391 -0.461257,-0.644723 -0.606803,-0.527014 -1.886623,-2.610441 -2.481262,-4.039262 l -0.47388,-1.138657 0.480638,-0.501679 0.480639,-0.501678 0.915061,0.354122 c 1.712314,0.662653 2.721847,1.253374 3.832002,2.24227 0.609682,0.543087 1.20725,0.949339 1.327928,0.902781 0.494918,-0.190937 3.202017,-2.513227 3.376768,-2.896768 0.152206,-0.334052 0.09923,-0.597825 -0.27471,-1.367799 -0.43232,-0.890189 -1.025308,-3.107572 -1.248063,-4.666943 -0.09039,-0.632753 -0.0565,-0.696491 0.5154,-0.969208 0.538747,-0.256911 0.671379,-0.261346 1.106086,-0.03699 0.832809,0.429816 3.512216,3.234025 3.876425,4.05698 0.186534,0.421489 0.425891,0.728672 0.531903,0.682629 0.106013,-0.04604 1.116858,-0.458967 2.246322,-0.917608 1.129464,-0.458642 2.079161,-0.858379 2.110434,-0.888303 0.03128,-0.02992 -0.03807,-0.870999 -0.1541,-1.869054 -0.228456,-1.9651051 -0.0992,-4.625911 0.246048,-5.0649604 0.114582,-0.1457147 0.456948,-0.316258 0.760811,-0.3789853 0.52551,-0.1084827 0.596307,-0.050462 1.450373,1.1886585 1.044836,1.515898 2.015005,3.3768072 2.015005,3.8650362 0,0.829879 0.813466,0.951575 3.694622,0.552719 l 1.462478,-0.20246 0.09972,-1.009865 c 0.173723,-1.7593292 0.405589,-2.7618613 0.988139,-4.2724639 l 0.566716,-1.469544 h 0.752043 0.752043 l 0.489359,1.2578134 c 0.540538,1.3893571 0.922343,2.9454521 1.099434,4.4808905 l 0.116093,1.006561 1.39653,0.217248 c 2.073091,0.322495 3.235627,0.323097 3.424079,0.0018 0.0864,-0.147322 0.319028,-0.716748 0.51695,-1.265392 0.40203,-1.1144512 1.405366,-2.8124232 2.258334,-3.8218441 0.545193,-0.6451919 0.582953,-0.6596298 1.19603,-0.4572961 0.569477,0.187944 0.647454,0.2930475 0.77632,1.0463738 0.126918,0.7419334 0.130623,3.2660734 0.0078,5.3017294 l -0.0431,0.714286 1.696428,0.847391 c 0.933036,0.466065 1.903416,0.847761 2.1564,0.848214 0.355663,6.43e-4 0.720115,-0.311226 1.607143,-1.375241 0.630945,-0.756835 1.694264,-1.835232 2.362934,-2.396437 l 1.215763,-1.020373 0.52418,0.298223 c 0.458091,0.260623 0.524152,0.399537 0.523959,1.101794 -3.57e-4,1.484725 -0.36357,3.115613 -0.990014,4.445941 -0.342113,0.726517 -0.578131,1.449732 -0.524484,1.607143 0.14913,0.437583 3.269264,2.696921 3.724428,2.696921 0.225882,0 0.669852,-0.278444 1.016447,-0.637486 0.791014,-0.819421 2.316534,-1.745866 3.784876,-2.298549 l 1.158563,-0.436082 0.463698,0.483996 0.463698,0.483997 -0.609987,1.403182 c -0.723284,1.663801 -1.295639,2.561605 -2.355141,3.694298 l -0.782741,0.836814 1.355635,1.71647 c 0.825306,1.04498 1.524315,1.758805 1.786815,1.824689 0.277748,0.06971 0.893307,-0.08396 1.729862,-0.431861 1.3809,-0.574269 3.952773,-1.170344 4.629679,-1.073005 0.223887,0.0322 0.527159,0.273202 0.673937,0.535568 0.230638,0.412262 0.232934,0.540444 0.01691,0.944073 -0.406239,0.759066 -2.757271,3.185223 -3.554596,3.668182 -0.405359,0.245536 -0.78695,0.633091 -0.847979,0.861236 -0.07325,0.273816 0.150373,1.081693 0.657909,2.376862 l 0.768871,1.962056 1.173399,-0.14472 c 1.427491,-0.176057 4.743662,-0.178005 5.402569,-0.0032 0.278298,0.07384 0.527529,0.295399 0.594527,0.528511 0.06345,0.220756 0.153043,0.537175 0.199105,0.703157 0.1551,0.558888 -4.003162,3.179831 -5.04558,3.180216 -0.59895,1.79e-4 -0.838582,0.453654 -0.803711,1.520779 0.05613,1.717659 0.345932,3.526364 0.589791,3.68097 0.130184,0.08254 0.607427,0.151298 1.06054,0.152801 1.234551,0.0041 2.486323,0.284777 4.081755,0.915233 l 1.433689,0.566542 v 0.752786 0.752788 l -1.473214,0.563173 c -1.591807,0.608507 -2.968921,0.914905 -4.131516,0.919232 -0.404005,0.0014 -0.84107,0.07026 -0.971254,0.152802 -0.243859,0.154605 -0.533662,1.96331 -0.589791,3.680969 -0.03487,1.067125 0.204761,1.520558 0.803711,1.520779 1.042418,3.57e-4 5.20068,2.621329 5.04558,3.180216 -0.36476,1.314391 -0.302371,1.280689 -2.612087,1.411004 -0.933036,0.05264 -2.272986,0.0056 -2.977666,-0.104508 -0.704682,-0.110119 -1.400811,-0.154333 -1.546954,-0.09825 -0.227468,0.08729 -0.687137,1.029323 -1.834555,3.759689 l -0.234916,0.559004 1.047382,0.646482 c 1.070537,0.660773 3.284873,2.876512 3.754041,3.75642 0.229459,0.430342 0.228741,0.546805 -0.006,0.966346 -0.146779,0.262366 -0.45005,0.503371 -0.673938,0.535568 -0.672044,0.09664 -3.246394,-0.496088 -4.577616,-1.05397 -0.685637,-0.287328 -1.428328,-0.522419 -1.650423,-0.522419 -0.297797,0 -0.780025,0.472239 -1.836864,1.798816 l -1.433059,1.798816 1.002335,1.102969 c 0.98502,1.083918 1.70942,2.305561 2.388056,4.027277 l 0.342962,0.8701 -0.479621,0.458654 -0.479622,0.458651 -1.297409,-0.521782 c -1.510946,-0.607659 -2.948153,-1.499968 -3.691357,-2.291828 -0.288464,-0.307348 -0.705687,-0.558816 -0.927162,-0.558816 -0.456338,0 -3.57662,2.258462 -3.726048,2.696916 -0.05365,0.15741 0.182371,0.880625 0.524484,1.607143 0.626444,1.330328 0.989608,2.961216 0.990014,4.445941 1.78e-4,0.699568 -0.06663,0.841601 -0.51632,1.097409 -0.503744,0.28656 -0.533571,0.280305 -1.204227,-0.252506 -1.382903,-1.098668 -2.800391,-2.565882 -3.440626,-3.561332 L 64.987111,81.199249 63.0334,82.089176 c -1.074539,0.489459 -2.063237,0.999451 -2.197103,1.133319 -0.203415,0.203415 -0.206025,0.507413 -0.01589,1.850741 0.177026,1.250758 0.182221,1.975065 0.02342,3.264849 -0.112243,0.911626 -0.266938,1.715914 -0.343766,1.787305 -0.07683,0.07139 -0.388432,0.182105 -0.692454,0.24603 -0.510882,0.10742 -0.608745,0.04208 -1.29158,-0.862326 -0.927786,-1.228843 -1.896802,-3.000299 -2.190034,-4.003595 -0.3223,-1.102745 -0.554961,-1.171089 -2.884252,-0.847261 -1.097582,0.152591 -2.053314,0.277438 -2.123852,0.277438 -0.07054,0 -0.18163,0.462053 -0.246871,1.026785 -0.179741,1.555858 -0.559354,3.10644 -1.101961,4.501116 L 49.479691,91.72139 H 48.727648 47.975605 Z M 57.812543,77.978919 c 5.066584,-0.491624 12.637104,-2.676143 12.637104,-3.646513 0,-0.429841 -0.41317,-0.450902 -3.239915,-0.165146 -3.623848,0.366335 -10.396548,0.417826 -10.723055,0.08152 -0.250514,-0.258027 -0.233886,-0.274999 1.998684,-2.039906 4.153277,-3.283277 6.836,-10.101819 7.376053,-18.747337 l 0.0642,-1.027706 -16.532625,0.04556 -16.532625,0.04556 -0.05795,0.711968 c -0.06586,0.809268 -0.244341,0.977856 -1.039314,0.981727 -0.308852,0.0014 -1.099734,0.168963 -1.757518,0.37213 -1.587271,0.490259 -2.90021,1.731779 -3.480655,3.291318 -0.675693,1.815456 -0.951468,3.842213 -0.723086,5.314175 0.392956,2.532659 1.713829,4.465025 4.166479,6.095331 2.500562,1.662153 2.972593,1.79868 6.260727,1.81081 l 2.832971,0.01045 1.320039,1.24176 c 0.831659,0.782342 1.319584,1.380617 1.318813,1.617077 -0.0011,0.341643 -0.133413,0.385609 -1.474438,0.490002 -2.361223,0.183811 -6.25548,0.12497 -9.239937,-0.139609 -2.798015,-0.248048 -3.393991,-0.186875 -3.393991,0.348375 0,0.991073 8.274775,3.112754 13.839285,3.548438 1.694197,0.132651 14.469261,-0.05451 16.380754,-0.239991 z M 47.89452,48.016033 c -0.262115,-1.194357 -0.348607,-2.340857 -0.367104,-4.866072 -0.03156,-4.307935 0.191806,-5.117251 2.080063,-7.536841 3.051907,-3.910678 5.505659,-7.285834 5.830175,-8.019457 1.312291,-2.966653 0.645125,-7.564485 -1.886227,-12.999078 -0.430482,-0.924207 -0.814395,-1.647421 -0.853139,-1.607143 -0.03874,0.04028 0.09793,0.796448 0.303709,1.680377 0.290732,1.248817 0.37476,2.204351 0.376882,4.285714 0.0032,3.11734 -0.242674,3.999016 -1.606556,5.761466 -2.620282,3.386005 -3.498289,4.623159 -4.932387,6.949948 -2.04315,3.314964 -2.161402,3.63635 -2.156156,5.860014 0.0064,2.703316 0.660981,5.356965 2.41174,9.776786 0.496027,1.252232 0.955877,2.276786 1.021885,2.276786 0.06601,0 -0.03429,-0.703125 -0.222885,-1.5625 z m 9.126689,-2.92037 c -0.121857,-0.529957 -0.223971,-2.088559 -0.226918,-3.463559 -0.006,-2.787105 0.196622,-3.509673 1.397931,-4.985775 1.852719,-2.276519 3.786507,-4.923369 4.113816,-5.630734 0.555334,-1.200169 0.499817,-3.838939 -0.124158,-5.901348 -0.4834,-1.597766 -1.435814,-3.83466 -1.703017,-3.9998 -0.08673,-0.0536 -0.03467,0.402548 0.115696,1.01367 0.153663,0.62452 0.276677,1.932271 0.280893,2.98613 0.0091,2.267504 -0.247761,2.95152 -1.829377,4.87212 -1.818648,2.208435 -3.915687,5.605473 -4.152786,6.727184 -0.359475,1.700669 0.435183,5.408548 1.890645,8.821784 0.397882,0.933082 0.506602,0.731626 0.237275,-0.439672 z M 40.05623,42.301747 c -0.189364,-0.761161 -0.389689,-2.271502 -0.445166,-3.356312 -0.128153,-2.50602 0.129545,-3.463193 1.419195,-5.271302 3.269782,-4.584288 3.869641,-5.729772 3.874743,-7.399172 0.0038,-1.241673 -0.399666,-3.015892 -1.061948,-4.669914 -0.540607,-1.350142 -1.591075,-3.356415 -1.697729,-3.242466 -0.02844,0.03038 0.108902,0.657916 0.305195,1.394523 0.44741,1.67895 0.524816,4.456331 0.149303,5.357143 -0.143296,0.34375 -0.911703,1.589286 -1.707571,2.767857 -2.119823,3.13917 -3.304263,5.418715 -3.425404,6.592459 -0.123339,1.195048 0.190452,2.940536 0.88545,4.925398 0.480274,1.371616 1.830324,4.285715 1.985499,4.285715 0.0345,0 -0.0922,-0.622768 -0.281567,-1.383929 z"
       style="opacity:1;fill:#ffffff;fill-opacity:1;stroke:#ffffff;stroke-width:0.155;stroke-miterlimit:4;stroke-dasharray:none;stroke-opacity:1" />
  </g>
</svg>
